<svg xmlns="http://www.w3.org/2000/svg" viewBox="0 0 128 128" role="img" aria-label="AptFindr icon">
  <defs>
    <linearGradient id="app-bg" x1="32" y1="20" x2="99" y2="105" gradientUnits="userSpaceOnUse">
      <stop offset="0" stop-color="#ffae13"/>
      <stop offset="0.56" stop-color="#ff7a00"/>
      <stop offset="1" stop-color="#ff4b1f"/>
    </linearGradient>
    <filter id="badge-shadow" x="-40%" y="-40%" width="180%" height="180%">
      <feDropShadow dx="0" dy="2" stdDeviation="2" flood-color="#c2410c" flood-opacity="0.18"/>
    </filter>
  </defs>

  <rect width="128" height="128" fill="#fff8e8"/>
  <rect x="29" y="17" width="74" height="78" rx="20" fill="url(#app-bg)"/>

  <g fill="none" stroke="#fff" stroke-linecap="round" stroke-linejoin="round" stroke-width="5">
    <path d="M51 77V42.5A5.5 5.5 0 0 1 56.5 37h22A5.5 5.5 0 0 1 84 42.5V77"/>
    <path d="M44 77V55.5A4.5 4.5 0 0 1 48.5 51H51"/>
    <path d="M84 51h2.5A4.5 4.5 0 0 1 91 55.5V77"/>
    <path d="M59 48h17"/>
    <path d="M59 58h17"/>
    <path d="M59 68h17"/>
    <path d="M51 77h40"/>
  </g>

  <g filter="url(#badge-shadow)">
    <circle cx="99" cy="94" r="13" fill="#fff"/>
    <path d="M99 83.8c-5.1 0-9.2 4.1-9.2 9.2 0 6.3 9.2 15 9.2 15s9.2-8.7 9.2-15c0-5.1-4.1-9.2-9.2-9.2z" fill="#ff2f6d"/>
    <circle cx="99" cy="93" r="3.4" fill="#fff"/>
  </g>
</svg>
